<mxfile host="65bd71144e">
    <diagram id="DvyuMwlg2YJ0CRrs3Fwj" name="Page-1">
        <mxGraphModel dx="1085" dy="739" grid="1" gridSize="10" guides="1" tooltips="1" connect="1" arrows="1" fold="1" page="1" pageScale="1" pageWidth="1600" pageHeight="1200" math="0" shadow="0">
            <root>
                <mxCell id="0"/>
                <mxCell id="1" parent="0"/>
                <mxCell id="2" value="" style="html=1;dashed=1;" vertex="1" parent="1">
                    <mxGeometry x="250" y="80" width="415" height="510" as="geometry"/>
                </mxCell>
                <mxCell id="3" value="&lt;b&gt;Process Unit&lt;/b&gt;" style="text;html=1;strokeColor=none;fillColor=none;align=center;verticalAlign=middle;whiteSpace=wrap;rounded=0;" vertex="1" parent="1">
                    <mxGeometry x="407" y="100" width="110" height="30" as="geometry"/>
                </mxCell>
                <mxCell id="4" value="Actor" style="shape=umlActor;verticalLabelPosition=bottom;verticalAlign=top;html=1;" vertex="1" parent="1">
                    <mxGeometry x="447" y="635" width="30" height="60" as="geometry"/>
                </mxCell>
                <mxCell id="5" value="" style="endArrow=classic;html=1;rounded=0;" edge="1" parent="1" target="7">
                    <mxGeometry width="50" height="50" relative="1" as="geometry">
                        <mxPoint x="430" y="630" as="sourcePoint"/>
                        <mxPoint x="345.03999999999996" y="517.04" as="targetPoint"/>
                    </mxGeometry>
                </mxCell>
                <mxCell id="6" value="sends registration claim" style="text;html=1;strokeColor=none;fillColor=none;align=center;verticalAlign=middle;whiteSpace=wrap;rounded=0;dashed=1;" vertex="1" parent="1">
                    <mxGeometry x="387" y="520" width="60" height="30" as="geometry"/>
                </mxCell>
                <mxCell id="7" value="&lt;span style=&quot;&quot;&gt;Tournament&lt;/span&gt;" style="ellipse;whiteSpace=wrap;html=1;aspect=fixed;" vertex="1" parent="1">
                    <mxGeometry x="270" y="410" width="80" height="80" as="geometry"/>
                </mxCell>
                <mxCell id="8" value="&lt;span style=&quot;&quot;&gt;Notification&lt;/span&gt;" style="ellipse;whiteSpace=wrap;html=1;aspect=fixed;" vertex="1" parent="1">
                    <mxGeometry x="280" y="90" width="80" height="80" as="geometry"/>
                </mxCell>
                <mxCell id="9" value="&lt;span style=&quot;&quot;&gt;Push&lt;br&gt;Delivery&lt;br&gt;Service&lt;br&gt;&lt;/span&gt;" style="ellipse;whiteSpace=wrap;html=1;aspect=fixed;" vertex="1" parent="1">
                    <mxGeometry x="80" y="200" width="80" height="80" as="geometry"/>
                </mxCell>
                <mxCell id="10" value="" style="endArrow=classic;html=1;rounded=0;dashed=1;exitX=1;exitY=0;exitDx=0;exitDy=0;" edge="1" parent="1" source="16" target="17">
                    <mxGeometry width="50" height="50" relative="1" as="geometry">
                        <mxPoint x="438.28427124746213" y="301.71572875253787" as="sourcePoint"/>
                        <mxPoint x="520.4144605076026" y="226.92017557416375" as="targetPoint"/>
                    </mxGeometry>
                </mxCell>
                <mxCell id="12" value="" style="endArrow=classic;html=1;rounded=0;exitX=0;exitY=0.5;exitDx=0;exitDy=0;" edge="1" parent="1" source="8" target="9">
                    <mxGeometry width="50" height="50" relative="1" as="geometry">
                        <mxPoint x="450" y="650" as="sourcePoint"/>
                        <mxPoint x="355.03999999999996" y="527.04" as="targetPoint"/>
                    </mxGeometry>
                </mxCell>
                <mxCell id="13" value="sends" style="text;html=1;strokeColor=none;fillColor=none;align=center;verticalAlign=middle;whiteSpace=wrap;rounded=0;dashed=1;" vertex="1" parent="1">
                    <mxGeometry x="180" y="200" width="60" height="30" as="geometry"/>
                </mxCell>
                <mxCell id="14" value="creates sport event" style="text;html=1;strokeColor=none;fillColor=none;align=center;verticalAlign=middle;whiteSpace=wrap;rounded=0;dashed=1;" vertex="1" parent="1">
                    <mxGeometry x="300" y="540" width="60" height="30" as="geometry"/>
                </mxCell>
                <mxCell id="16" value="&lt;span style=&quot;&quot;&gt;Groups&lt;/span&gt;" style="ellipse;whiteSpace=wrap;html=1;aspect=fixed;" vertex="1" parent="1">
                    <mxGeometry x="327" y="295" width="80" height="80" as="geometry"/>
                </mxCell>
                <mxCell id="17" value="&lt;span style=&quot;&quot;&gt;Chats&lt;/span&gt;" style="ellipse;whiteSpace=wrap;html=1;aspect=fixed;" vertex="1" parent="1">
                    <mxGeometry x="447" y="230" width="80" height="80" as="geometry"/>
                </mxCell>
                <mxCell id="19" value="" style="endArrow=classic;html=1;rounded=0;dashed=1;" edge="1" parent="1" source="7" target="16">
                    <mxGeometry width="50" height="50" relative="1" as="geometry">
                        <mxPoint x="650.0999999999999" y="270.03" as="sourcePoint"/>
                        <mxPoint x="367.0586630848925" y="155.05508187823762" as="targetPoint"/>
                    </mxGeometry>
                </mxCell>
                <mxCell id="20" value="notifies" style="text;html=1;strokeColor=none;fillColor=none;align=center;verticalAlign=middle;whiteSpace=wrap;rounded=0;dashed=1;" vertex="1" parent="1">
                    <mxGeometry x="337" y="380" width="60" height="30" as="geometry"/>
                </mxCell>
                <mxCell id="21" value="invites" style="text;html=1;strokeColor=none;fillColor=none;align=center;verticalAlign=middle;whiteSpace=wrap;rounded=0;dashed=1;" vertex="1" parent="1">
                    <mxGeometry x="270" y="370" width="60" height="30" as="geometry"/>
                </mxCell>
                <mxCell id="22" value="notifies" style="text;html=1;strokeColor=none;fillColor=none;align=center;verticalAlign=middle;whiteSpace=wrap;rounded=0;dashed=1;" vertex="1" parent="1">
                    <mxGeometry x="380" y="260" width="60" height="30" as="geometry"/>
                </mxCell>
                <mxCell id="23" value="notifies" style="text;html=1;strokeColor=none;fillColor=none;align=center;verticalAlign=middle;whiteSpace=wrap;rounded=0;dashed=1;" vertex="1" parent="1">
                    <mxGeometry x="387" y="160" width="60" height="30" as="geometry"/>
                </mxCell>
                <mxCell id="24" value="" style="endArrow=classic;html=1;rounded=0;dashed=1;exitX=0;exitY=0;exitDx=0;exitDy=0;entryX=1;entryY=1;entryDx=0;entryDy=0;" edge="1" parent="1" source="17" target="8">
                    <mxGeometry width="50" height="50" relative="1" as="geometry">
                        <mxPoint x="337.7067061132559" y="424.1325696680201" as="sourcePoint"/>
                        <mxPoint x="359.23622285210126" y="380.8391995089187" as="targetPoint"/>
                    </mxGeometry>
                </mxCell>
                <mxCell id="25" value="Athletic&lt;br style=&quot;border-color: var(--border-color);&quot;&gt;Metrics" style="ellipse;whiteSpace=wrap;html=1;aspect=fixed;" vertex="1" parent="1">
                    <mxGeometry x="527" y="460" width="80" height="80" as="geometry"/>
                </mxCell>
                <mxCell id="26" value="" style="endArrow=classic;html=1;rounded=0;" edge="1" parent="1" target="25">
                    <mxGeometry width="50" height="50" relative="1" as="geometry">
                        <mxPoint x="480" y="630" as="sourcePoint"/>
                        <mxPoint x="342.1880078490092" y="493.28201177351366" as="targetPoint"/>
                    </mxGeometry>
                </mxCell>
                <mxCell id="27" value="sends&amp;nbsp;" style="text;html=1;strokeColor=none;fillColor=none;align=center;verticalAlign=middle;whiteSpace=wrap;rounded=0;dashed=1;" vertex="1" parent="1">
                    <mxGeometry x="467" y="540" width="60" height="30" as="geometry"/>
                </mxCell>
                <mxCell id="29" value="&lt;span style=&quot;&quot;&gt;Achievements&lt;/span&gt;" style="ellipse;whiteSpace=wrap;html=1;aspect=fixed;" vertex="1" parent="1">
                    <mxGeometry x="540" y="320" width="80" height="80" as="geometry"/>
                </mxCell>
                <mxCell id="30" value="" style="endArrow=classic;html=1;rounded=0;dashed=1;exitX=-0.025;exitY=0.425;exitDx=0;exitDy=0;exitPerimeter=0;" edge="1" parent="1" source="25" target="7">
                    <mxGeometry width="50" height="50" relative="1" as="geometry">
                        <mxPoint x="405.28427124746213" y="316.71572875253787" as="sourcePoint"/>
                        <mxPoint x="459.8048221246504" y="294.71457586277563" as="targetPoint"/>
                    </mxGeometry>
                </mxCell>
                <mxCell id="31" value="sends" style="text;html=1;strokeColor=none;fillColor=none;align=center;verticalAlign=middle;whiteSpace=wrap;rounded=0;dashed=1;" vertex="1" parent="1">
                    <mxGeometry x="407" y="440" width="60" height="30" as="geometry"/>
                </mxCell>
                <mxCell id="32" value="" style="endArrow=classic;html=1;rounded=0;dashed=1;exitX=0.963;exitY=0.325;exitDx=0;exitDy=0;exitPerimeter=0;" edge="1" parent="1" source="7" target="29">
                    <mxGeometry width="50" height="50" relative="1" as="geometry">
                        <mxPoint x="535" y="504" as="sourcePoint"/>
                        <mxPoint x="359.1877837931836" y="468.0198255204655" as="targetPoint"/>
                    </mxGeometry>
                </mxCell>
                <mxCell id="33" value="creates" style="text;html=1;strokeColor=none;fillColor=none;align=center;verticalAlign=middle;whiteSpace=wrap;rounded=0;dashed=1;" vertex="1" parent="1">
                    <mxGeometry x="477" y="390" width="60" height="30" as="geometry"/>
                </mxCell>
            </root>
        </mxGraphModel>
    </diagram>
</mxfile>